<svg xmlns="http://www.w3.org/2000/svg" xmlns:xlink="http://www.w3.org/1999/xlink" width="305" zoomAndPan="magnify" viewBox="0 0 228.75 156.749997" height="209" preserveAspectRatio="xMidYMid meet" version="1.0"><defs><g/><clipPath id="e6edd20fe3"><path d="M 0.0585938 0 L 228.441406 0 L 228.441406 156.5 L 0.0585938 156.5 Z M 0.0585938 0 " clip-rule="nonzero"/></clipPath><clipPath id="24ec1b03dd"><path d="M 88.390625 11.148438 L 124.515625 11.148438 L 124.515625 42.816406 L 88.390625 42.816406 Z M 88.390625 11.148438 " clip-rule="nonzero"/></clipPath><clipPath id="c0ed2b6f53"><path d="M 91.773438 11.523438 C 108.957031 11.363281 121.304688 21.566406 124.402344 38.488281 C 124.710938 40.164062 123.703125 41.792969 122.066406 42.261719 L 122.023438 42.273438 C 120.199219 42.792969 118.3125 41.695312 117.902344 39.867188 C 114.894531 26.539062 105.300781 18.601562 91.664062 18.171875 C 89.785156 18.109375 88.347656 16.472656 88.519531 14.597656 L 88.519531 14.558594 C 88.667969 12.839844 90.074219 11.542969 91.78125 11.523438 " clip-rule="nonzero"/></clipPath><clipPath id="5615fc4be9"><path d="M 112.921875 4.90625 L 125.855469 4.90625 L 125.855469 17.839844 L 112.921875 17.839844 Z M 112.921875 4.90625 " clip-rule="nonzero"/></clipPath><clipPath id="a87ab2b981"><path d="M 119.347656 4.992188 C 117.523438 4.992188 115.703125 5.78125 114.445312 7.308594 C 112.210938 10.015625 112.601562 14.027344 115.304688 16.265625 C 116.492188 17.242188 117.921875 17.722656 119.347656 17.722656 C 121.175781 17.722656 122.992188 16.933594 124.25 15.40625 C 126.488281 12.699219 126.097656 8.6875 123.394531 6.449219 C 122.203125 5.472656 120.765625 4.992188 119.347656 4.992188 Z M 119.347656 4.992188 " clip-rule="nonzero"/></clipPath><clipPath id="0af0da8a0f"><path d="M 59 30 L 101.769531 30 L 101.769531 52.183594 L 59 52.183594 Z M 59 30 " clip-rule="nonzero"/></clipPath><clipPath id="1bf000e01c"><path d="M 59.714844 47.054688 C 68.171875 32.078125 83.167969 26.476562 99.351562 32.25 C 100.949219 32.816406 101.867188 34.503906 101.449219 36.164062 L 101.4375 36.203125 C 100.976562 38.050781 99.089844 39.128906 97.292969 38.578125 C 84.265625 34.523438 72.605469 38.886719 65.40625 50.488281 C 64.417969 52.085938 62.28125 52.507812 60.742188 51.429688 L 60.710938 51.40625 C 59.304688 50.417969 58.886719 48.550781 59.722656 47.066406 " clip-rule="nonzero"/></clipPath><clipPath id="aa6f14b4e3"><path d="M 66.980469 16.503906 L 79.914062 16.503906 L 79.914062 29.4375 L 66.980469 29.4375 Z M 66.980469 16.503906 " clip-rule="nonzero"/></clipPath><clipPath id="5cdacc71fb"><path d="M 79.304688 20.847656 C 80.53125 24.140625 78.863281 27.804688 75.570312 29.035156 C 72.273438 30.261719 68.621094 28.585938 67.390625 25.300781 C 66.164062 22.015625 67.832031 18.339844 71.125 17.113281 C 74.421875 15.882812 78.074219 17.550781 79.304688 20.847656 " clip-rule="nonzero"/></clipPath><clipPath id="2ff16e8654"><path d="M 69.210938 50 L 87 50 L 87 94.554688 L 69.210938 94.554688 Z M 69.210938 50 " clip-rule="nonzero"/></clipPath><clipPath id="ca0add96a9"><path d="M 74.410156 92.621094 C 65.683594 77.804688 68.339844 61.992188 81.417969 50.847656 C 82.71875 49.742188 84.632812 49.800781 85.851562 50.988281 L 85.882812 51.019531 C 87.25 52.347656 87.242188 54.523438 85.863281 55.800781 C 75.839844 65.074219 73.78125 77.367188 80.222656 89.40625 C 81.109375 91.066406 80.402344 93.132812 78.703125 93.921875 L 78.664062 93.941406 C 77.105469 94.667969 75.28125 94.089844 74.410156 92.632812 " clip-rule="nonzero"/></clipPath><clipPath id="7f1aa9a1a5"><path d="M 54.046875 62.441406 L 66.980469 62.441406 L 66.980469 75.375 L 54.046875 75.375 Z M 54.046875 62.441406 " clip-rule="nonzero"/></clipPath><clipPath id="6147b4a1b7"><path d="M 61.542969 62.53125 C 65.007812 63.109375 67.34375 66.394531 66.753906 69.859375 C 66.164062 73.324219 62.898438 75.660156 59.433594 75.082031 C 55.96875 74.5 53.632812 71.214844 54.222656 67.75 C 54.8125 64.289062 58.078125 61.949219 61.542969 62.53125 " clip-rule="nonzero"/></clipPath><clipPath id="5c4110d147"><path d="M 88.390625 71.363281 L 124.515625 71.363281 L 124.515625 103 L 88.390625 103 Z M 88.390625 71.363281 " clip-rule="nonzero"/></clipPath><clipPath id="e81e162f94"><path d="M 121.1875 102.65625 C 104.003906 102.816406 91.652344 92.613281 88.558594 75.6875 C 88.25 74.011719 89.257812 72.382812 90.894531 71.914062 L 90.933594 71.90625 C 92.761719 71.386719 94.648438 72.484375 95.058594 74.3125 C 98.0625 87.648438 107.65625 95.578125 121.296875 96.015625 C 123.171875 96.078125 124.609375 97.714844 124.441406 99.589844 L 124.441406 99.632812 C 124.292969 101.347656 122.882812 102.644531 121.175781 102.667969 " clip-rule="nonzero"/></clipPath><clipPath id="4ff09acdd6"><path d="M 87.050781 96.339844 L 99.988281 96.339844 L 99.988281 109.273438 L 87.050781 109.273438 Z M 87.050781 96.339844 " clip-rule="nonzero"/></clipPath><clipPath id="a690a40e1c"><path d="M 93.621094 96.464844 C 91.792969 96.464844 89.976562 97.253906 88.71875 98.78125 C 86.480469 101.488281 86.871094 105.5 89.578125 107.738281 C 90.765625 108.714844 92.191406 109.195312 93.621094 109.195312 C 95.449219 109.195312 97.265625 108.40625 98.523438 106.878906 C 100.757812 104.171875 100.371094 100.160156 97.664062 97.921875 C 96.476562 96.945312 95.046875 96.464844 93.621094 96.464844 Z M 93.621094 96.464844 " clip-rule="nonzero"/></clipPath><clipPath id="bace091da2"><path d="M 111.136719 62 L 153.953125 62 L 153.953125 84.296875 L 111.136719 84.296875 Z M 111.136719 62 " clip-rule="nonzero"/></clipPath><clipPath id="c70e3feaa6"><path d="M 153.246094 67.121094 C 144.789062 82.097656 129.792969 87.699219 113.609375 81.929688 C 112.011719 81.359375 111.09375 79.671875 111.511719 78.015625 L 111.523438 77.976562 C 111.980469 76.128906 113.867188 75.050781 115.664062 75.597656 C 128.703125 79.652344 140.355469 75.289062 147.554688 63.6875 C 148.542969 62.089844 150.679688 61.671875 152.214844 62.75 L 152.246094 62.769531 C 153.65625 63.757812 154.074219 65.625 153.234375 67.113281 " clip-rule="nonzero"/></clipPath><clipPath id="e0cd507f47"><path d="M 133 84.296875 L 146 84.296875 L 146 97.675781 L 133 97.675781 Z M 133 84.296875 " clip-rule="nonzero"/></clipPath><clipPath id="873fc84f8b"><path d="M 133.65625 93.332031 C 132.429688 90.035156 134.09375 86.371094 137.390625 85.144531 C 140.683594 83.914062 144.339844 85.582031 145.566406 88.878906 C 146.796875 92.171875 145.128906 95.835938 141.832031 97.066406 C 138.539062 98.292969 134.882812 96.625 133.65625 93.332031 " clip-rule="nonzero"/></clipPath><clipPath id="41fd553522"><path d="M 126 19.625 L 143.695312 19.625 L 143.695312 64.226562 L 126 64.226562 Z M 126 19.625 " clip-rule="nonzero"/></clipPath><clipPath id="89b99b8cf8"><path d="M 138.546875 21.554688 C 147.273438 36.371094 144.617188 52.1875 131.539062 63.328125 C 130.242188 64.4375 128.324219 64.378906 127.105469 63.1875 L 127.078125 63.160156 C 125.707031 61.832031 125.71875 59.65625 127.097656 58.375 C 137.121094 49.101562 139.175781 36.8125 132.738281 24.769531 C 131.847656 23.113281 132.558594 21.046875 134.253906 20.257812 L 134.296875 20.238281 C 135.851562 19.507812 137.679688 20.089844 138.546875 21.546875 " clip-rule="nonzero"/></clipPath><clipPath id="294fc12fae"><path d="M 146 39 L 158.859375 39 L 158.859375 51.738281 L 146 51.738281 Z M 146 39 " clip-rule="nonzero"/></clipPath><clipPath id="c6371515d0"><path d="M 151.417969 51.648438 C 147.953125 51.070312 145.628906 47.785156 146.207031 44.320312 C 146.785156 40.855469 150.058594 38.519531 153.523438 39.097656 C 156.988281 39.675781 159.316406 42.960938 158.734375 46.425781 C 158.15625 49.890625 154.882812 52.226562 151.417969 51.648438 " clip-rule="nonzero"/></clipPath></defs><g clip-path="url(#e6edd20fe3)"><path fill="#ffffff" d="M 0.0585938 0 L 228.441406 0 L 228.441406 156.5 L 0.0585938 156.5 Z M 0.0585938 0 " fill-opacity="1" fill-rule="nonzero"/></g><g clip-path="url(#24ec1b03dd)"><g clip-path="url(#c0ed2b6f53)"><path fill="#0172bb" d="M 49.140625 0 L 163.765625 0 L 163.765625 114.179688 L 49.140625 114.179688 Z M 49.140625 0 " fill-opacity="1" fill-rule="nonzero"/></g></g><g clip-path="url(#5615fc4be9)"><g clip-path="url(#a87ab2b981)"><path fill="#0172bb" d="M 49.140625 0 L 163.765625 0 L 163.765625 114.179688 L 49.140625 114.179688 Z M 49.140625 0 " fill-opacity="1" fill-rule="nonzero"/></g></g><g clip-path="url(#0af0da8a0f)"><g clip-path="url(#1bf000e01c)"><path fill="#db0f10" d="M 49.140625 0 L 163.765625 0 L 163.765625 114.179688 L 49.140625 114.179688 Z M 49.140625 0 " fill-opacity="1" fill-rule="nonzero"/></g></g><g clip-path="url(#aa6f14b4e3)"><g clip-path="url(#5cdacc71fb)"><path fill="#db0f10" d="M 49.140625 0 L 163.765625 0 L 163.765625 114.179688 L 49.140625 114.179688 Z M 49.140625 0 " fill-opacity="1" fill-rule="nonzero"/></g></g><g clip-path="url(#2ff16e8654)"><g clip-path="url(#ca0add96a9)"><path fill="#fdb620" d="M 49.140625 0 L 163.765625 0 L 163.765625 114.179688 L 49.140625 114.179688 Z M 49.140625 0 " fill-opacity="1" fill-rule="nonzero"/></g></g><g clip-path="url(#7f1aa9a1a5)"><g clip-path="url(#6147b4a1b7)"><path fill="#fdb620" d="M 49.140625 0 L 163.765625 0 L 163.765625 114.179688 L 49.140625 114.179688 Z M 49.140625 0 " fill-opacity="1" fill-rule="nonzero"/></g></g><g clip-path="url(#5c4110d147)"><g clip-path="url(#e81e162f94)"><path fill="#e53990" d="M 49.140625 0 L 163.765625 0 L 163.765625 114.179688 L 49.140625 114.179688 Z M 49.140625 0 " fill-opacity="1" fill-rule="nonzero"/></g></g><g clip-path="url(#4ff09acdd6)"><g clip-path="url(#a690a40e1c)"><path fill="#e53990" d="M 49.140625 0 L 163.765625 0 L 163.765625 114.179688 L 49.140625 114.179688 Z M 49.140625 0 " fill-opacity="1" fill-rule="nonzero"/></g></g><g clip-path="url(#bace091da2)"><g clip-path="url(#c70e3feaa6)"><path fill="#24a620" d="M 49.140625 0 L 163.765625 0 L 163.765625 114.179688 L 49.140625 114.179688 Z M 49.140625 0 " fill-opacity="1" fill-rule="nonzero"/></g></g><g clip-path="url(#e0cd507f47)"><g clip-path="url(#873fc84f8b)"><path fill="#24a620" d="M 49.140625 0 L 163.765625 0 L 163.765625 114.179688 L 49.140625 114.179688 Z M 49.140625 0 " fill-opacity="1" fill-rule="nonzero"/></g></g><g clip-path="url(#41fd553522)"><g clip-path="url(#89b99b8cf8)"><path fill="#32318f" d="M 49.140625 0 L 163.765625 0 L 163.765625 114.179688 L 49.140625 114.179688 Z M 49.140625 0 " fill-opacity="1" fill-rule="nonzero"/></g></g><g clip-path="url(#294fc12fae)"><g clip-path="url(#c6371515d0)"><path fill="#32318f" d="M 49.140625 0 L 163.765625 0 L 163.765625 114.179688 L 49.140625 114.179688 Z M 49.140625 0 " fill-opacity="1" fill-rule="nonzero"/></g></g><g fill="#1a0322" fill-opacity="1"><g transform="translate(6.859181, 134.367605)"><g><path d="M 10.953125 -16.078125 L 17.65625 0 L 13.9375 0 L 12.5 -3.453125 L 5.671875 -3.453125 L 4.234375 0 L 0.5 0 L 7.203125 -16.078125 Z M 11.203125 -6.578125 L 9.09375 -11.625 L 6.984375 -6.578125 Z M 11.203125 -6.578125 "/></g></g></g><g fill="#1a0322" fill-opacity="1"><g transform="translate(26.077895, 134.367605)"><g><path d="M 8.140625 -11.25 L 11.265625 -11.25 L 11.265625 0 L 8.59375 0 L 8.140625 -0.859375 C 7.773438 -0.597656 7.363281 -0.390625 6.90625 -0.234375 C 6.445312 -0.078125 5.953125 0 5.421875 0 C 5.015625 0 4.546875 -0.0546875 4.015625 -0.171875 C 3.492188 -0.296875 3.003906 -0.523438 2.546875 -0.859375 C 2.097656 -1.191406 1.71875 -1.648438 1.40625 -2.234375 C 1.101562 -2.828125 0.953125 -3.59375 0.953125 -4.53125 L 0.953125 -11.25 L 4.109375 -11.25 L 4.109375 -4.640625 C 4.109375 -4.296875 4.160156 -4.003906 4.265625 -3.765625 C 4.378906 -3.523438 4.53125 -3.332031 4.71875 -3.1875 C 4.914062 -3.039062 5.132812 -2.929688 5.375 -2.859375 C 5.613281 -2.796875 5.863281 -2.765625 6.125 -2.765625 C 6.320312 -2.765625 6.535156 -2.796875 6.765625 -2.859375 C 7.003906 -2.929688 7.222656 -3.039062 7.421875 -3.1875 C 7.628906 -3.34375 7.800781 -3.539062 7.9375 -3.78125 C 8.070312 -4.03125 8.140625 -4.316406 8.140625 -4.640625 Z M 8.140625 -11.25 "/></g></g></g><g fill="#1a0322" fill-opacity="1"><g transform="translate(39.449547, 134.367605)"><g><path d="M 5.171875 -4.03125 C 5.171875 -3.5 5.332031 -3.085938 5.65625 -2.796875 C 5.976562 -2.515625 6.40625 -2.375 6.9375 -2.375 C 7.363281 -2.375 7.785156 -2.457031 8.203125 -2.625 L 8.203125 0 C 7.828125 0.125 7.425781 0.226562 7 0.3125 C 6.582031 0.394531 6.160156 0.4375 5.734375 0.4375 C 5.253906 0.4375 4.796875 0.375 4.359375 0.25 C 3.921875 0.125 3.523438 -0.0820312 3.171875 -0.375 C 2.828125 -0.664062 2.550781 -1.054688 2.34375 -1.546875 C 2.144531 -2.046875 2.046875 -2.65625 2.046875 -3.375 L 2.046875 -8.453125 L 0.4375 -8.453125 L 0.4375 -10.5625 L 2.046875 -11.25 L 2.046875 -13.765625 L 5.171875 -13.765625 L 5.171875 -11.25 L 8.203125 -11.25 L 8.203125 -8.453125 L 5.171875 -8.453125 Z M 5.171875 -4.03125 "/></g></g></g><g fill="#1a0322" fill-opacity="1"><g transform="translate(49.195119, 134.367605)"><g><path d="M 6.546875 -11.5625 C 7.347656 -11.5625 8.101562 -11.40625 8.8125 -11.09375 C 9.53125 -10.789062 10.148438 -10.367188 10.671875 -9.828125 C 11.203125 -9.285156 11.625 -8.65625 11.9375 -7.9375 C 12.25 -7.226562 12.40625 -6.460938 12.40625 -5.640625 C 12.40625 -4.828125 12.25 -4.0625 11.9375 -3.34375 C 11.625 -2.625 11.203125 -1.992188 10.671875 -1.453125 C 10.148438 -0.921875 9.53125 -0.5 8.8125 -0.1875 C 8.101562 0.113281 7.347656 0.265625 6.546875 0.265625 C 5.734375 0.265625 4.972656 0.113281 4.265625 -0.1875 C 3.554688 -0.5 2.9375 -0.921875 2.40625 -1.453125 C 1.875 -1.992188 1.453125 -2.625 1.140625 -3.34375 C 0.835938 -4.0625 0.6875 -4.828125 0.6875 -5.640625 C 0.6875 -6.460938 0.835938 -7.226562 1.140625 -7.9375 C 1.453125 -8.65625 1.875 -9.285156 2.40625 -9.828125 C 2.9375 -10.367188 3.554688 -10.789062 4.265625 -11.09375 C 4.972656 -11.40625 5.734375 -11.5625 6.546875 -11.5625 Z M 6.546875 -2.46875 C 6.929688 -2.46875 7.285156 -2.539062 7.609375 -2.6875 C 7.929688 -2.84375 8.21875 -3.050781 8.46875 -3.3125 C 8.71875 -3.582031 8.910156 -3.898438 9.046875 -4.265625 C 9.191406 -4.640625 9.265625 -5.054688 9.265625 -5.515625 C 9.265625 -5.960938 9.191406 -6.382812 9.046875 -6.78125 C 8.910156 -7.175781 8.71875 -7.519531 8.46875 -7.8125 C 8.21875 -8.101562 7.929688 -8.335938 7.609375 -8.515625 C 7.285156 -8.691406 6.929688 -8.78125 6.546875 -8.78125 C 6.171875 -8.78125 5.816406 -8.691406 5.484375 -8.515625 C 5.148438 -8.335938 4.859375 -8.101562 4.609375 -7.8125 C 4.359375 -7.519531 4.160156 -7.175781 4.015625 -6.78125 C 3.878906 -6.382812 3.8125 -5.960938 3.8125 -5.515625 C 3.8125 -5.054688 3.878906 -4.640625 4.015625 -4.265625 C 4.160156 -3.898438 4.359375 -3.582031 4.609375 -3.3125 C 4.859375 -3.050781 5.148438 -2.84375 5.484375 -2.6875 C 5.816406 -2.539062 6.171875 -2.46875 6.546875 -2.46875 Z M 6.546875 -2.46875 "/></g></g></g><g fill="#1a0322" fill-opacity="1"><g transform="translate(63.269324, 134.367605)"><g><path d="M 10.953125 -16.078125 L 17.65625 0 L 13.9375 0 L 12.5 -3.453125 L 5.671875 -3.453125 L 4.234375 0 L 0.5 0 L 7.203125 -16.078125 Z M 11.203125 -6.578125 L 9.09375 -11.625 L 6.984375 -6.578125 Z M 11.203125 -6.578125 "/></g></g></g><g fill="#1a0322" fill-opacity="1"><g transform="translate(82.488035, 134.367605)"><g><path d="M 6.921875 -16.078125 L 6.921875 -13.171875 L 5.71875 -13.171875 L 5.71875 -2.875 L 6.921875 -2.875 L 6.921875 0 L 1.0625 0 L 1.0625 -2.875 L 2.265625 -2.875 L 2.265625 -13.171875 L 1.0625 -13.171875 L 1.0625 -16.078125 Z M 6.921875 -16.078125 "/></g></g></g><g fill="#1a0322" fill-opacity="1"><g transform="translate(91.508381, 134.367605)"><g><path d="M 7.75 -5.171875 L 1.09375 -5.171875 L 1.09375 -7.296875 L 7.75 -7.296875 Z M 7.75 -5.171875 "/></g></g></g><g fill="#1a0322" fill-opacity="1"><g transform="translate(101.389918, 134.367605)"><g><path d="M 8 -16.078125 C 8.632812 -16.078125 9.234375 -15.953125 9.796875 -15.703125 C 10.359375 -15.453125 10.84375 -15.109375 11.25 -14.671875 C 11.664062 -14.242188 11.992188 -13.738281 12.234375 -13.15625 C 12.484375 -12.570312 12.609375 -11.953125 12.609375 -11.296875 C 12.609375 -10.628906 12.484375 -10.003906 12.234375 -9.421875 C 11.992188 -8.835938 11.664062 -8.328125 11.25 -7.890625 C 10.84375 -7.453125 10.359375 -7.109375 9.796875 -6.859375 C 9.234375 -6.609375 8.632812 -6.484375 8 -6.484375 L 4.484375 -6.484375 L 4.484375 0 L 1.0625 0 L 1.0625 -16.078125 Z M 7.546875 -9.609375 C 7.984375 -9.609375 8.363281 -9.769531 8.6875 -10.09375 C 9.019531 -10.425781 9.1875 -10.828125 9.1875 -11.296875 C 9.1875 -11.742188 9.019531 -12.128906 8.6875 -12.453125 C 8.363281 -12.785156 7.984375 -12.953125 7.546875 -12.953125 L 4.484375 -12.953125 L 4.484375 -9.609375 Z M 7.546875 -9.609375 "/></g></g></g><g fill="#1a0322" fill-opacity="1"><g transform="translate(115.328141, 134.367605)"><g><path d="M 12.78125 -11.25 L 12.78125 0 L 10.09375 0 L 9.765625 -1.203125 C 9.328125 -0.609375 8.800781 -0.210938 8.1875 -0.015625 C 7.582031 0.171875 6.945312 0.265625 6.28125 0.265625 C 5.476562 0.265625 4.738281 0.113281 4.0625 -0.1875 C 3.394531 -0.5 2.8125 -0.921875 2.3125 -1.453125 C 1.8125 -1.992188 1.421875 -2.625 1.140625 -3.34375 C 0.859375 -4.0625 0.71875 -4.828125 0.71875 -5.640625 C 0.71875 -6.460938 0.859375 -7.226562 1.140625 -7.9375 C 1.421875 -8.65625 1.8125 -9.285156 2.3125 -9.828125 C 2.8125 -10.367188 3.394531 -10.789062 4.0625 -11.09375 C 4.738281 -11.40625 5.476562 -11.5625 6.28125 -11.5625 C 7.007812 -11.5625 7.675781 -11.445312 8.28125 -11.21875 C 8.882812 -10.988281 9.378906 -10.628906 9.765625 -10.140625 L 10.09375 -11.25 Z M 9.65625 -5.59375 C 9.65625 -6.1875 9.578125 -6.679688 9.421875 -7.078125 C 9.265625 -7.484375 9.050781 -7.8125 8.78125 -8.0625 C 8.519531 -8.3125 8.210938 -8.492188 7.859375 -8.609375 C 7.503906 -8.722656 7.117188 -8.78125 6.703125 -8.78125 C 6.296875 -8.78125 5.914062 -8.695312 5.5625 -8.53125 C 5.207031 -8.363281 4.894531 -8.140625 4.625 -7.859375 C 4.351562 -7.578125 4.140625 -7.242188 3.984375 -6.859375 C 3.835938 -6.472656 3.765625 -6.066406 3.765625 -5.640625 C 3.765625 -5.203125 3.835938 -4.796875 3.984375 -4.421875 C 4.140625 -4.046875 4.351562 -3.71875 4.625 -3.4375 C 4.894531 -3.15625 5.207031 -2.929688 5.5625 -2.765625 C 5.914062 -2.597656 6.296875 -2.515625 6.703125 -2.515625 C 7.523438 -2.515625 8.21875 -2.765625 8.78125 -3.265625 C 9.351562 -3.773438 9.644531 -4.550781 9.65625 -5.59375 Z M 9.65625 -5.59375 "/></g></g></g><g fill="#1a0322" fill-opacity="1"><g transform="translate(130.172892, 134.367605)"><g><path d="M 6.875 -11.25 C 7.289062 -11.25 7.753906 -11.1875 8.265625 -11.0625 C 8.785156 -10.9375 9.269531 -10.707031 9.71875 -10.375 C 10.175781 -10.050781 10.5625 -9.59375 10.875 -9 C 11.1875 -8.40625 11.34375 -7.640625 11.34375 -6.703125 L 11.34375 0 L 8.1875 0 L 8.1875 -6.59375 C 8.1875 -6.945312 8.128906 -7.242188 8.015625 -7.484375 C 7.898438 -7.722656 7.75 -7.914062 7.5625 -8.0625 C 7.375 -8.207031 7.15625 -8.3125 6.90625 -8.375 C 6.664062 -8.445312 6.425781 -8.484375 6.1875 -8.484375 C 5.988281 -8.484375 5.769531 -8.445312 5.53125 -8.375 C 5.300781 -8.3125 5.082031 -8.203125 4.875 -8.046875 C 4.675781 -7.898438 4.507812 -7.703125 4.375 -7.453125 C 4.238281 -7.210938 4.171875 -6.925781 4.171875 -6.59375 L 4.171875 0 L 1.046875 0 L 1.046875 -11.25 L 3.71875 -11.25 L 4.171875 -10.390625 C 4.535156 -10.640625 4.941406 -10.84375 5.390625 -11 C 5.847656 -11.164062 6.34375 -11.25 6.875 -11.25 Z M 6.875 -11.25 "/></g></g></g><g fill="#1a0322" fill-opacity="1"><g transform="translate(143.499214, 134.367605)"><g><path d="M 12.359375 -16.546875 L 12.359375 0 L 9.6875 0 L 9.234375 -0.96875 C 8.878906 -0.613281 8.394531 -0.316406 7.78125 -0.078125 C 7.175781 0.148438 6.539062 0.265625 5.875 0.265625 C 5.070312 0.265625 4.328125 0.113281 3.640625 -0.1875 C 2.960938 -0.5 2.378906 -0.921875 1.890625 -1.453125 C 1.398438 -1.992188 1.015625 -2.625 0.734375 -3.34375 C 0.453125 -4.0625 0.3125 -4.828125 0.3125 -5.640625 C 0.3125 -6.460938 0.453125 -7.226562 0.734375 -7.9375 C 1.015625 -8.65625 1.398438 -9.285156 1.890625 -9.828125 C 2.378906 -10.367188 2.960938 -10.789062 3.640625 -11.09375 C 4.328125 -11.40625 5.070312 -11.5625 5.875 -11.5625 C 6.582031 -11.5625 7.210938 -11.476562 7.765625 -11.3125 C 8.316406 -11.144531 8.804688 -10.863281 9.234375 -10.46875 L 9.234375 -16.546875 Z M 9.234375 -5.59375 C 9.234375 -6.1875 9.15625 -6.679688 9 -7.078125 C 8.851562 -7.484375 8.640625 -7.8125 8.359375 -8.0625 C 8.085938 -8.3125 7.773438 -8.492188 7.421875 -8.609375 C 7.066406 -8.722656 6.6875 -8.78125 6.28125 -8.78125 C 5.875 -8.78125 5.492188 -8.695312 5.140625 -8.53125 C 4.785156 -8.363281 4.472656 -8.140625 4.203125 -7.859375 C 3.941406 -7.578125 3.734375 -7.242188 3.578125 -6.859375 C 3.429688 -6.472656 3.359375 -6.066406 3.359375 -5.640625 C 3.359375 -5.203125 3.429688 -4.796875 3.578125 -4.421875 C 3.734375 -4.046875 3.941406 -3.71875 4.203125 -3.4375 C 4.472656 -3.15625 4.785156 -2.929688 5.140625 -2.765625 C 5.492188 -2.597656 5.875 -2.515625 6.28125 -2.515625 C 7.09375 -2.515625 7.78125 -2.765625 8.34375 -3.265625 C 8.914062 -3.773438 9.210938 -4.550781 9.234375 -5.59375 Z M 9.234375 -5.59375 "/></g></g></g><g fill="#1a0322" fill-opacity="1"><g transform="translate(157.936028, 134.367605)"><g><path d="M 6.578125 -11.5625 C 7.421875 -11.5625 8.191406 -11.390625 8.890625 -11.046875 C 9.585938 -10.710938 10.179688 -10.269531 10.671875 -9.71875 C 11.171875 -9.164062 11.554688 -8.53125 11.828125 -7.8125 C 12.109375 -7.09375 12.25 -6.351562 12.25 -5.59375 C 12.25 -5.144531 12.1875 -4.664062 12.0625 -4.15625 L 4.03125 -4.15625 C 4.332031 -3.632812 4.765625 -3.195312 5.328125 -2.84375 C 5.890625 -2.488281 6.492188 -2.3125 7.140625 -2.3125 C 7.785156 -2.3125 8.351562 -2.363281 8.84375 -2.46875 C 9.34375 -2.570312 9.8125 -2.707031 10.25 -2.875 L 11.296875 -0.953125 C 10.734375 -0.554688 10.09375 -0.253906 9.375 -0.046875 C 8.65625 0.160156 7.890625 0.265625 7.078125 0.265625 C 6.179688 0.265625 5.347656 0.113281 4.578125 -0.1875 C 3.804688 -0.5 3.132812 -0.921875 2.5625 -1.453125 C 1.988281 -1.984375 1.535156 -2.609375 1.203125 -3.328125 C 0.867188 -4.054688 0.703125 -4.828125 0.703125 -5.640625 C 0.703125 -6.441406 0.851562 -7.203125 1.15625 -7.921875 C 1.457031 -8.640625 1.875 -9.265625 2.40625 -9.796875 C 2.945312 -10.335938 3.570312 -10.765625 4.28125 -11.078125 C 4.988281 -11.398438 5.753906 -11.5625 6.578125 -11.5625 Z M 9.140625 -6.578125 C 8.953125 -7.222656 8.625 -7.75 8.15625 -8.15625 C 7.6875 -8.570312 7.160156 -8.78125 6.578125 -8.78125 C 5.972656 -8.78125 5.421875 -8.570312 4.921875 -8.15625 C 4.429688 -7.75 4.097656 -7.222656 3.921875 -6.578125 Z M 9.140625 -6.578125 "/></g></g></g><g fill="#1a0322" fill-opacity="1"><g transform="translate(172.486152, 134.367605)"><g><path d="M 13.53125 -11.25 C 13.9375 -11.25 14.375 -11.179688 14.84375 -11.046875 C 15.3125 -10.910156 15.742188 -10.664062 16.140625 -10.3125 C 16.546875 -9.96875 16.878906 -9.492188 17.140625 -8.890625 C 17.398438 -8.285156 17.53125 -7.515625 17.53125 -6.578125 L 17.53125 0 L 14.390625 0 L 14.390625 -6.015625 C 14.390625 -6.460938 14.34375 -6.84375 14.25 -7.15625 C 14.15625 -7.476562 14.023438 -7.738281 13.859375 -7.9375 C 13.691406 -8.132812 13.5 -8.273438 13.28125 -8.359375 C 13.0625 -8.441406 12.835938 -8.484375 12.609375 -8.484375 C 12.390625 -8.484375 12.175781 -8.441406 11.96875 -8.359375 C 11.757812 -8.285156 11.570312 -8.15625 11.40625 -7.96875 C 11.238281 -7.789062 11.101562 -7.539062 11 -7.21875 C 10.90625 -6.90625 10.859375 -6.507812 10.859375 -6.03125 L 10.859375 0 L 7.734375 0 L 7.734375 -6.015625 C 7.734375 -6.929688 7.570312 -7.570312 7.25 -7.9375 C 6.9375 -8.300781 6.476562 -8.484375 5.875 -8.484375 C 5.4375 -8.484375 5.039062 -8.273438 4.6875 -7.859375 C 4.34375 -7.453125 4.171875 -6.820312 4.171875 -5.96875 L 4.171875 0 L 1.046875 0 L 1.046875 -11.25 L 3.71875 -11.25 L 4.171875 -10.203125 C 4.515625 -10.535156 4.914062 -10.789062 5.375 -10.96875 C 5.84375 -11.15625 6.34375 -11.25 6.875 -11.25 C 7.144531 -11.25 7.429688 -11.222656 7.734375 -11.171875 C 8.035156 -11.117188 8.328125 -11.019531 8.609375 -10.875 C 8.898438 -10.738281 9.175781 -10.5625 9.4375 -10.34375 C 9.707031 -10.125 9.945312 -9.847656 10.15625 -9.515625 C 10.332031 -9.804688 10.550781 -10.0625 10.8125 -10.28125 C 11.070312 -10.5 11.351562 -10.679688 11.65625 -10.828125 C 11.957031 -10.972656 12.269531 -11.078125 12.59375 -11.140625 C 12.914062 -11.210938 13.226562 -11.25 13.53125 -11.25 Z M 13.53125 -11.25 "/></g></g></g><g fill="#1a0322" fill-opacity="1"><g transform="translate(192.044806, 134.367605)"><g><path d="M 4.421875 0 L 1.296875 0 L 1.296875 -11.25 L 4.421875 -11.25 Z M 2.859375 -12.78125 C 2.367188 -12.78125 1.957031 -12.945312 1.625 -13.28125 C 1.300781 -13.613281 1.140625 -14.023438 1.140625 -14.515625 C 1.140625 -14.992188 1.300781 -15.398438 1.625 -15.734375 C 1.957031 -16.078125 2.367188 -16.25 2.859375 -16.25 C 3.335938 -16.25 3.742188 -16.078125 4.078125 -15.734375 C 4.410156 -15.398438 4.578125 -14.992188 4.578125 -14.515625 C 4.578125 -14.023438 4.410156 -13.613281 4.078125 -13.28125 C 3.742188 -12.945312 3.335938 -12.78125 2.859375 -12.78125 Z M 2.859375 -12.78125 "/></g></g></g><g fill="#1a0322" fill-opacity="1"><g transform="translate(198.844192, 134.367605)"><g><path d="M 6.546875 -8.78125 C 6.171875 -8.78125 5.816406 -8.691406 5.484375 -8.515625 C 5.148438 -8.335938 4.859375 -8.101562 4.609375 -7.8125 C 4.359375 -7.519531 4.160156 -7.175781 4.015625 -6.78125 C 3.878906 -6.382812 3.8125 -5.960938 3.8125 -5.515625 C 3.8125 -5.054688 3.878906 -4.640625 4.015625 -4.265625 C 4.160156 -3.898438 4.359375 -3.582031 4.609375 -3.3125 C 4.859375 -3.050781 5.148438 -2.84375 5.484375 -2.6875 C 5.816406 -2.539062 6.171875 -2.46875 6.546875 -2.46875 C 7.015625 -2.46875 7.472656 -2.578125 7.921875 -2.796875 C 8.367188 -3.015625 8.75 -3.320312 9.0625 -3.71875 L 11 -1.8125 C 10.46875 -1.175781 9.816406 -0.671875 9.046875 -0.296875 C 8.273438 0.078125 7.441406 0.265625 6.546875 0.265625 C 5.734375 0.265625 4.972656 0.113281 4.265625 -0.1875 C 3.554688 -0.5 2.9375 -0.921875 2.40625 -1.453125 C 1.875 -1.992188 1.453125 -2.625 1.140625 -3.34375 C 0.835938 -4.0625 0.6875 -4.828125 0.6875 -5.640625 C 0.6875 -6.460938 0.835938 -7.226562 1.140625 -7.9375 C 1.453125 -8.65625 1.875 -9.285156 2.40625 -9.828125 C 2.9375 -10.367188 3.554688 -10.789062 4.265625 -11.09375 C 4.972656 -11.40625 5.734375 -11.5625 6.546875 -11.5625 C 7.472656 -11.5625 8.328125 -11.363281 9.109375 -10.96875 C 9.898438 -10.582031 10.566406 -10.046875 11.109375 -9.359375 L 8.9375 -7.6875 C 8.5 -8.09375 8.097656 -8.375 7.734375 -8.53125 C 7.378906 -8.695312 6.984375 -8.78125 6.546875 -8.78125 Z M 6.546875 -8.78125 "/></g></g></g><g fill="#1a0322" fill-opacity="1"><g transform="translate(211.58127, 134.367605)"><g><path d="M 8.15625 -5.890625 C 8.988281 -5.304688 9.40625 -4.46875 9.40625 -3.375 C 9.40625 -2.875 9.285156 -2.40625 9.046875 -1.96875 C 8.816406 -1.53125 8.5 -1.144531 8.09375 -0.8125 C 7.6875 -0.476562 7.207031 -0.21875 6.65625 -0.03125 C 6.113281 0.15625 5.535156 0.25 4.921875 0.25 C 4.453125 0.25 3.992188 0.1875 3.546875 0.0625 C 3.097656 -0.0507812 2.6875 -0.210938 2.3125 -0.421875 C 1.9375 -0.640625 1.609375 -0.894531 1.328125 -1.1875 C 1.046875 -1.476562 0.835938 -1.804688 0.703125 -2.171875 C 1.046875 -2.335938 1.429688 -2.519531 1.859375 -2.71875 C 2.285156 -2.925781 2.65625 -3.113281 2.96875 -3.28125 C 3.101562 -3.0625 3.3125 -2.851562 3.59375 -2.65625 C 3.882812 -2.46875 4.28125 -2.375 4.78125 -2.375 C 5.289062 -2.375 5.664062 -2.492188 5.90625 -2.734375 C 6.15625 -2.984375 6.28125 -3.210938 6.28125 -3.421875 C 6.28125 -3.578125 6.195312 -3.71875 6.03125 -3.84375 C 5.863281 -3.96875 5.675781 -4.070312 5.46875 -4.15625 C 5.164062 -4.269531 4.914062 -4.332031 4.71875 -4.34375 C 4.519531 -4.351562 4.289062 -4.394531 4.03125 -4.46875 C 3.21875 -4.664062 2.59375 -4.925781 2.15625 -5.25 C 1.726562 -5.570312 1.414062 -5.898438 1.21875 -6.234375 C 1.019531 -6.566406 0.910156 -6.882812 0.890625 -7.1875 C 0.867188 -7.488281 0.859375 -7.726562 0.859375 -7.90625 C 0.859375 -8.394531 0.960938 -8.859375 1.171875 -9.296875 C 1.390625 -9.734375 1.679688 -10.113281 2.046875 -10.4375 C 2.421875 -10.757812 2.851562 -11.019531 3.34375 -11.21875 C 3.832031 -11.414062 4.359375 -11.515625 4.921875 -11.515625 C 5.390625 -11.515625 5.832031 -11.445312 6.25 -11.3125 C 6.675781 -11.175781 7.0625 -10.988281 7.40625 -10.75 C 7.757812 -10.507812 8.0625 -10.222656 8.3125 -9.890625 C 8.5625 -9.554688 8.742188 -9.1875 8.859375 -8.78125 L 6.4375 -7.953125 C 6.34375 -8.222656 6.15625 -8.441406 5.875 -8.609375 C 5.601562 -8.773438 5.304688 -8.859375 4.984375 -8.859375 C 4.671875 -8.859375 4.414062 -8.753906 4.21875 -8.546875 C 4.019531 -8.335938 3.921875 -8.125 3.921875 -7.90625 C 3.921875 -7.65625 4.015625 -7.457031 4.203125 -7.3125 C 4.390625 -7.164062 4.597656 -7.0625 4.828125 -7 C 4.992188 -6.96875 5.15625 -6.941406 5.3125 -6.921875 C 5.46875 -6.898438 5.625 -6.875 5.78125 -6.84375 C 6.3125 -6.726562 6.769531 -6.59375 7.15625 -6.4375 C 7.539062 -6.289062 7.875 -6.109375 8.15625 -5.890625 Z M 8.15625 -5.890625 "/></g></g></g><g fill="#1a0322" fill-opacity="1"><g transform="translate(21.835296, 141.855662)"><g><path d="M 2.15625 -4.171875 C 2.582031 -4.171875 2.945312 -4.085938 3.25 -3.921875 C 3.5625 -3.753906 3.796875 -3.507812 3.953125 -3.1875 C 4.117188 -2.875 4.203125 -2.507812 4.203125 -2.09375 C 4.203125 -1.664062 4.117188 -1.296875 3.953125 -0.984375 C 3.796875 -0.671875 3.5625 -0.425781 3.25 -0.25 C 2.945312 -0.0820312 2.582031 0 2.15625 0 L 0.625 0 L 0.625 -4.171875 Z M 2.15625 -0.703125 C 2.539062 -0.703125 2.835938 -0.816406 3.046875 -1.046875 C 3.265625 -1.285156 3.375 -1.632812 3.375 -2.09375 C 3.375 -2.539062 3.265625 -2.878906 3.046875 -3.109375 C 2.835938 -3.347656 2.539062 -3.46875 2.15625 -3.46875 L 1.40625 -3.46875 L 1.40625 -0.703125 Z M 2.15625 -0.703125 "/></g></g></g><g fill="#1a0322" fill-opacity="1"><g transform="translate(29.389185, 141.855662)"><g><path d="M 3.296875 -1.328125 L 1.125 -1.328125 C 1.15625 -1.085938 1.242188 -0.898438 1.390625 -0.765625 C 1.535156 -0.640625 1.726562 -0.578125 1.96875 -0.578125 C 2.15625 -0.578125 2.351562 -0.609375 2.5625 -0.671875 C 2.769531 -0.742188 2.960938 -0.835938 3.140625 -0.953125 L 3.171875 -0.953125 L 3.171875 -0.3125 C 3.003906 -0.1875 2.816406 -0.0859375 2.609375 -0.015625 C 2.410156 0.046875 2.195312 0.078125 1.96875 0.078125 C 1.632812 0.078125 1.347656 0.0078125 1.109375 -0.125 C 0.867188 -0.257812 0.679688 -0.445312 0.546875 -0.6875 C 0.410156 -0.9375 0.34375 -1.226562 0.34375 -1.5625 C 0.34375 -1.882812 0.40625 -2.171875 0.53125 -2.421875 C 0.65625 -2.671875 0.832031 -2.863281 1.0625 -3 C 1.289062 -3.132812 1.554688 -3.203125 1.859375 -3.203125 C 2.148438 -3.203125 2.40625 -3.132812 2.625 -3 C 2.84375 -2.875 3.007812 -2.6875 3.125 -2.4375 C 3.238281 -2.1875 3.296875 -1.894531 3.296875 -1.5625 Z M 1.859375 -2.5625 C 1.671875 -2.5625 1.515625 -2.5 1.390625 -2.375 C 1.265625 -2.257812 1.179688 -2.085938 1.140625 -1.859375 L 2.484375 -1.859375 C 2.453125 -2.085938 2.382812 -2.257812 2.28125 -2.375 C 2.175781 -2.5 2.035156 -2.5625 1.859375 -2.5625 Z M 1.859375 -2.5625 "/></g></g></g><g fill="#1a0322" fill-opacity="1"><g transform="translate(35.864814, 141.855662)"><g><path d="M 4.109375 -3.203125 C 4.410156 -3.203125 4.648438 -3.109375 4.828125 -2.921875 C 5.015625 -2.734375 5.109375 -2.488281 5.109375 -2.1875 L 5.109375 0 L 4.3125 0 L 4.3125 -1.734375 C 4.3125 -2.003906 4.273438 -2.195312 4.203125 -2.3125 C 4.128906 -2.4375 4.007812 -2.5 3.84375 -2.5 C 3.644531 -2.5 3.4375 -2.382812 3.21875 -2.15625 L 3.21875 0 L 2.421875 0 L 2.421875 -1.734375 C 2.421875 -2.003906 2.382812 -2.195312 2.3125 -2.3125 C 2.238281 -2.4375 2.117188 -2.5 1.953125 -2.5 C 1.753906 -2.5 1.546875 -2.382812 1.328125 -2.15625 L 1.328125 0 L 0.53125 0 L 0.53125 -2.4375 L 0.40625 -3.125 L 1.125 -3.125 L 1.234375 -2.734375 C 1.398438 -2.898438 1.5625 -3.019531 1.71875 -3.09375 C 1.875 -3.164062 2.039062 -3.203125 2.21875 -3.203125 C 2.414062 -3.203125 2.59375 -3.15625 2.75 -3.0625 C 2.90625 -2.976562 3.023438 -2.859375 3.109375 -2.703125 C 3.273438 -2.878906 3.4375 -3.003906 3.59375 -3.078125 C 3.75 -3.160156 3.921875 -3.203125 4.109375 -3.203125 Z M 4.109375 -3.203125 "/></g></g></g><g fill="#1a0322" fill-opacity="1"><g transform="translate(44.377162, 141.855662)"><g><path d="M 1.921875 0.078125 C 1.609375 0.078125 1.328125 0.0078125 1.078125 -0.125 C 0.835938 -0.257812 0.65625 -0.453125 0.53125 -0.703125 C 0.40625 -0.953125 0.34375 -1.238281 0.34375 -1.5625 C 0.34375 -1.894531 0.40625 -2.179688 0.53125 -2.421875 C 0.65625 -2.671875 0.835938 -2.863281 1.078125 -3 C 1.328125 -3.132812 1.609375 -3.203125 1.921875 -3.203125 C 2.234375 -3.203125 2.507812 -3.132812 2.75 -3 C 2.988281 -2.863281 3.171875 -2.671875 3.296875 -2.421875 C 3.429688 -2.179688 3.5 -1.894531 3.5 -1.5625 C 3.5 -1.238281 3.429688 -0.953125 3.296875 -0.703125 C 3.171875 -0.453125 2.988281 -0.257812 2.75 -0.125 C 2.507812 0.0078125 2.234375 0.078125 1.921875 0.078125 Z M 1.921875 -0.578125 C 2.160156 -0.578125 2.34375 -0.660156 2.46875 -0.828125 C 2.601562 -1.003906 2.671875 -1.25 2.671875 -1.5625 C 2.671875 -1.882812 2.601562 -2.128906 2.46875 -2.296875 C 2.34375 -2.460938 2.160156 -2.546875 1.921875 -2.546875 C 1.679688 -2.546875 1.492188 -2.460938 1.359375 -2.296875 C 1.234375 -2.128906 1.171875 -1.882812 1.171875 -1.5625 C 1.171875 -1.25 1.234375 -1.003906 1.359375 -0.828125 C 1.492188 -0.660156 1.679688 -0.578125 1.921875 -0.578125 Z M 1.921875 -0.578125 "/></g></g></g><g fill="#1a0322" fill-opacity="1"><g transform="translate(51.092404, 141.855662)"><g><path d="M 1.96875 0.078125 C 1.632812 0.078125 1.34375 0.0078125 1.09375 -0.125 C 0.851562 -0.257812 0.664062 -0.445312 0.53125 -0.6875 C 0.40625 -0.9375 0.34375 -1.222656 0.34375 -1.546875 C 0.34375 -1.878906 0.410156 -2.171875 0.546875 -2.421875 C 0.679688 -2.671875 0.867188 -2.863281 1.109375 -3 C 1.359375 -3.132812 1.644531 -3.203125 1.96875 -3.203125 C 2.332031 -3.203125 2.632812 -3.128906 2.875 -2.984375 L 2.875 -2.28125 L 2.859375 -2.28125 C 2.722656 -2.363281 2.578125 -2.425781 2.421875 -2.46875 C 2.273438 -2.507812 2.132812 -2.53125 2 -2.53125 C 1.71875 -2.53125 1.503906 -2.445312 1.359375 -2.28125 C 1.222656 -2.113281 1.15625 -1.867188 1.15625 -1.546875 C 1.15625 -0.921875 1.429688 -0.609375 1.984375 -0.609375 C 2.128906 -0.609375 2.273438 -0.628906 2.421875 -0.671875 C 2.578125 -0.722656 2.722656 -0.789062 2.859375 -0.875 L 2.875 -0.875 L 2.875 -0.15625 C 2.625 0 2.320312 0.078125 1.96875 0.078125 Z M 1.96875 0.078125 "/></g></g></g><g fill="#1a0322" fill-opacity="1"><g transform="translate(57.208609, 141.855662)"><g><path d="M 2.203125 -3.203125 L 2.203125 -2.421875 L 2.09375 -2.421875 C 1.78125 -2.421875 1.53125 -2.335938 1.34375 -2.171875 L 1.34375 0 L 0.546875 0 L 0.546875 -2.4375 L 0.40625 -3.125 L 1.203125 -3.125 L 1.28125 -2.71875 C 1.414062 -2.894531 1.535156 -3.019531 1.640625 -3.09375 C 1.753906 -3.164062 1.875 -3.203125 2 -3.203125 Z M 2.203125 -3.203125 "/></g></g></g><g fill="#1a0322" fill-opacity="1"><g transform="translate(62.605966, 141.855662)"><g><path d="M 2.453125 0 L 2.375 -0.375 C 2.082031 -0.0703125 1.738281 0.078125 1.34375 0.078125 C 1.03125 0.078125 0.773438 -0.00390625 0.578125 -0.171875 C 0.378906 -0.335938 0.28125 -0.554688 0.28125 -0.828125 C 0.28125 -1.171875 0.40625 -1.4375 0.65625 -1.625 C 0.914062 -1.820312 1.289062 -1.921875 1.78125 -1.921875 C 1.957031 -1.921875 2.132812 -1.914062 2.3125 -1.90625 L 2.3125 -2.015625 C 2.3125 -2.191406 2.257812 -2.320312 2.15625 -2.40625 C 2.0625 -2.488281 1.90625 -2.53125 1.6875 -2.53125 C 1.476562 -2.53125 1.28125 -2.492188 1.09375 -2.421875 C 0.914062 -2.359375 0.71875 -2.25 0.5 -2.09375 L 0.5 -2.796875 C 0.6875 -2.941406 0.878906 -3.046875 1.078125 -3.109375 C 1.273438 -3.171875 1.492188 -3.203125 1.734375 -3.203125 C 2.179688 -3.203125 2.519531 -3.109375 2.75 -2.921875 C 2.988281 -2.734375 3.109375 -2.457031 3.109375 -2.09375 L 3.109375 -0.703125 L 3.234375 0 Z M 1.0625 -0.875 C 1.0625 -0.644531 1.195312 -0.53125 1.46875 -0.53125 C 1.613281 -0.53125 1.753906 -0.5625 1.890625 -0.625 C 2.023438 -0.6875 2.164062 -0.785156 2.3125 -0.921875 L 2.3125 -1.34375 L 1.734375 -1.34375 C 1.503906 -1.34375 1.332031 -1.304688 1.21875 -1.234375 C 1.113281 -1.171875 1.0625 -1.050781 1.0625 -0.875 Z M 1.0625 -0.875 "/></g></g></g><g fill="#1a0322" fill-opacity="1"><g transform="translate(68.961783, 141.855662)"><g><path d="M 1.40625 -3.125 L 2.125 -3.125 L 2.125 -2.546875 L 1.40625 -2.546875 L 1.40625 -1.03125 C 1.40625 -0.726562 1.523438 -0.578125 1.765625 -0.578125 C 1.867188 -0.578125 1.992188 -0.613281 2.140625 -0.6875 L 2.140625 -0.03125 C 2.035156 0 1.941406 0.0234375 1.859375 0.046875 C 1.773438 0.0664062 1.675781 0.078125 1.5625 0.078125 C 0.9375 0.078125 0.625 -0.289062 0.625 -1.03125 L 0.625 -2.546875 L 0.15625 -2.546875 L 0.15625 -3.125 L 0.625 -3.125 L 0.625 -3.96875 L 1.40625 -4.25 Z M 1.40625 -3.125 "/></g></g></g><g fill="#1a0322" fill-opacity="1"><g transform="translate(74.23934, 141.855662)"><g><path d="M 0.84375 -3.59375 C 0.707031 -3.59375 0.585938 -3.640625 0.484375 -3.734375 C 0.390625 -3.828125 0.34375 -3.945312 0.34375 -4.09375 C 0.34375 -4.238281 0.390625 -4.359375 0.484375 -4.453125 C 0.585938 -4.546875 0.707031 -4.59375 0.84375 -4.59375 C 0.976562 -4.59375 1.09375 -4.546875 1.1875 -4.453125 C 1.28125 -4.359375 1.328125 -4.238281 1.328125 -4.09375 C 1.328125 -3.945312 1.28125 -3.828125 1.1875 -3.734375 C 1.09375 -3.640625 0.976562 -3.59375 0.84375 -3.59375 Z M 1.234375 -3.125 L 1.234375 0 L 0.4375 0 L 0.4375 -3.125 Z M 1.234375 -3.125 "/></g></g></g><g fill="#1a0322" fill-opacity="1"><g transform="translate(78.79805, 141.855662)"><g><path d="M 2.890625 -0.609375 L 2.890625 0 L 0.21875 0 L 0.21875 -0.546875 L 1.734375 -2.515625 L 0.359375 -2.515625 L 0.359375 -3.125 L 2.765625 -3.125 L 2.765625 -2.578125 L 1.265625 -0.609375 Z M 2.890625 -0.609375 "/></g></g></g><g fill="#1a0322" fill-opacity="1"><g transform="translate(84.794443, 141.855662)"><g><path d="M 0.84375 -3.59375 C 0.707031 -3.59375 0.585938 -3.640625 0.484375 -3.734375 C 0.390625 -3.828125 0.34375 -3.945312 0.34375 -4.09375 C 0.34375 -4.238281 0.390625 -4.359375 0.484375 -4.453125 C 0.585938 -4.546875 0.707031 -4.59375 0.84375 -4.59375 C 0.976562 -4.59375 1.09375 -4.546875 1.1875 -4.453125 C 1.28125 -4.359375 1.328125 -4.238281 1.328125 -4.09375 C 1.328125 -3.945312 1.28125 -3.828125 1.1875 -3.734375 C 1.09375 -3.640625 0.976562 -3.59375 0.84375 -3.59375 Z M 1.234375 -3.125 L 1.234375 0 L 0.4375 0 L 0.4375 -3.125 Z M 1.234375 -3.125 "/></g></g></g><g fill="#1a0322" fill-opacity="1"><g transform="translate(89.353154, 141.855662)"><g><path d="M 2.25 -3.203125 C 2.5625 -3.203125 2.816406 -3.109375 3.015625 -2.921875 C 3.210938 -2.734375 3.3125 -2.488281 3.3125 -2.1875 L 3.3125 0 L 2.515625 0 L 2.515625 -1.734375 C 2.515625 -2.003906 2.472656 -2.195312 2.390625 -2.3125 C 2.304688 -2.4375 2.171875 -2.5 1.984375 -2.5 C 1.773438 -2.5 1.554688 -2.382812 1.328125 -2.15625 L 1.328125 0 L 0.53125 0 L 0.53125 -2.4375 L 0.40625 -3.125 L 1.125 -3.125 L 1.234375 -2.734375 C 1.410156 -2.898438 1.578125 -3.019531 1.734375 -3.09375 C 1.898438 -3.164062 2.070312 -3.203125 2.25 -3.203125 Z M 2.25 -3.203125 "/></g></g></g><g fill="#1a0322" fill-opacity="1"><g transform="translate(96.068394, 141.855662)"><g><path d="M 3.4375 -3.125 L 3.296875 -2.4375 L 3.296875 0 C 3.296875 0.476562 3.15625 0.84375 2.875 1.09375 C 2.59375 1.34375 2.210938 1.46875 1.734375 1.46875 C 1.472656 1.46875 1.238281 1.429688 1.03125 1.359375 C 0.832031 1.296875 0.640625 1.207031 0.453125 1.09375 L 0.453125 0.34375 C 0.828125 0.632812 1.234375 0.78125 1.671875 0.78125 C 2.234375 0.78125 2.515625 0.519531 2.515625 0 L 2.515625 -0.25 C 2.265625 -0.113281 1.988281 -0.046875 1.6875 -0.046875 C 1.269531 -0.046875 0.941406 -0.179688 0.703125 -0.453125 C 0.460938 -0.734375 0.34375 -1.117188 0.34375 -1.609375 C 0.34375 -2.109375 0.46875 -2.5 0.71875 -2.78125 C 0.96875 -3.0625 1.3125 -3.203125 1.75 -3.203125 C 1.894531 -3.203125 2.03125 -3.1875 2.15625 -3.15625 C 2.28125 -3.125 2.429688 -3.070312 2.609375 -3 L 2.640625 -3.125 Z M 1.71875 -0.71875 C 1.96875 -0.71875 2.234375 -0.800781 2.515625 -0.96875 L 2.515625 -2.46875 C 2.410156 -2.5 2.304688 -2.515625 2.203125 -2.515625 C 2.097656 -2.523438 1.972656 -2.53125 1.828125 -2.53125 C 1.597656 -2.53125 1.429688 -2.457031 1.328125 -2.3125 C 1.222656 -2.164062 1.171875 -1.929688 1.171875 -1.609375 C 1.171875 -1.296875 1.210938 -1.066406 1.296875 -0.921875 C 1.390625 -0.785156 1.53125 -0.71875 1.71875 -0.71875 Z M 1.71875 -0.71875 "/></g></g></g><g fill="#1a0322" fill-opacity="1"><g transform="translate(102.663822, 141.855662)"><g/></g></g><g fill="#1a0322" fill-opacity="1"><g transform="translate(107.222532, 141.855662)"><g><path d="M 5.265625 0 L 4.46875 0 L 4.46875 -3.171875 L 3.359375 0 L 2.53125 0 L 1.40625 -3.171875 L 1.40625 0 L 0.625 0 L 0.625 -4.171875 L 1.859375 -4.171875 L 2.96875 -1.078125 L 4.03125 -4.171875 L 5.265625 -4.171875 Z M 5.265625 0 "/></g></g></g><g fill="#1a0322" fill-opacity="1"><g transform="translate(115.974502, 141.855662)"><g><path d="M 2.453125 0 L 2.375 -0.375 C 2.082031 -0.0703125 1.738281 0.078125 1.34375 0.078125 C 1.03125 0.078125 0.773438 -0.00390625 0.578125 -0.171875 C 0.378906 -0.335938 0.28125 -0.554688 0.28125 -0.828125 C 0.28125 -1.171875 0.40625 -1.4375 0.65625 -1.625 C 0.914062 -1.820312 1.289062 -1.921875 1.78125 -1.921875 C 1.957031 -1.921875 2.132812 -1.914062 2.3125 -1.90625 L 2.3125 -2.015625 C 2.3125 -2.191406 2.257812 -2.320312 2.15625 -2.40625 C 2.0625 -2.488281 1.90625 -2.53125 1.6875 -2.53125 C 1.476562 -2.53125 1.28125 -2.492188 1.09375 -2.421875 C 0.914062 -2.359375 0.71875 -2.25 0.5 -2.09375 L 0.5 -2.796875 C 0.6875 -2.941406 0.878906 -3.046875 1.078125 -3.109375 C 1.273438 -3.171875 1.492188 -3.203125 1.734375 -3.203125 C 2.179688 -3.203125 2.519531 -3.109375 2.75 -2.921875 C 2.988281 -2.734375 3.109375 -2.457031 3.109375 -2.09375 L 3.109375 -0.703125 L 3.234375 0 Z M 1.0625 -0.875 C 1.0625 -0.644531 1.195312 -0.53125 1.46875 -0.53125 C 1.613281 -0.53125 1.753906 -0.5625 1.890625 -0.625 C 2.023438 -0.6875 2.164062 -0.785156 2.3125 -0.921875 L 2.3125 -1.34375 L 1.734375 -1.34375 C 1.503906 -1.34375 1.332031 -1.304688 1.21875 -1.234375 C 1.113281 -1.171875 1.0625 -1.050781 1.0625 -0.875 Z M 1.0625 -0.875 "/></g></g></g><g fill="#1a0322" fill-opacity="1"><g transform="translate(122.330325, 141.855662)"><g><path d="M 1.96875 0.078125 C 1.632812 0.078125 1.34375 0.0078125 1.09375 -0.125 C 0.851562 -0.257812 0.664062 -0.445312 0.53125 -0.6875 C 0.40625 -0.9375 0.34375 -1.222656 0.34375 -1.546875 C 0.34375 -1.878906 0.410156 -2.171875 0.546875 -2.421875 C 0.679688 -2.671875 0.867188 -2.863281 1.109375 -3 C 1.359375 -3.132812 1.644531 -3.203125 1.96875 -3.203125 C 2.332031 -3.203125 2.632812 -3.128906 2.875 -2.984375 L 2.875 -2.28125 L 2.859375 -2.28125 C 2.722656 -2.363281 2.578125 -2.425781 2.421875 -2.46875 C 2.273438 -2.507812 2.132812 -2.53125 2 -2.53125 C 1.71875 -2.53125 1.503906 -2.445312 1.359375 -2.28125 C 1.222656 -2.113281 1.15625 -1.867188 1.15625 -1.546875 C 1.15625 -0.921875 1.429688 -0.609375 1.984375 -0.609375 C 2.128906 -0.609375 2.273438 -0.628906 2.421875 -0.671875 C 2.578125 -0.722656 2.722656 -0.789062 2.859375 -0.875 L 2.875 -0.875 L 2.875 -0.15625 C 2.625 0 2.320312 0.078125 1.96875 0.078125 Z M 1.96875 0.078125 "/></g></g></g><g fill="#1a0322" fill-opacity="1"><g transform="translate(128.446535, 141.855662)"><g><path d="M 2.25 -3.203125 C 2.5625 -3.203125 2.816406 -3.109375 3.015625 -2.921875 C 3.210938 -2.734375 3.3125 -2.488281 3.3125 -2.1875 L 3.3125 0 L 2.515625 0 L 2.515625 -1.734375 C 2.515625 -2.003906 2.472656 -2.195312 2.390625 -2.3125 C 2.304688 -2.4375 2.171875 -2.5 1.984375 -2.5 C 1.773438 -2.5 1.554688 -2.378906 1.328125 -2.140625 L 1.328125 0 L 0.53125 0 L 0.53125 -4.53125 L 1.328125 -4.53125 L 1.328125 -2.8125 C 1.484375 -2.945312 1.632812 -3.046875 1.78125 -3.109375 C 1.925781 -3.171875 2.082031 -3.203125 2.25 -3.203125 Z M 2.25 -3.203125 "/></g></g></g><g fill="#1a0322" fill-opacity="1"><g transform="translate(135.161781, 141.855662)"><g><path d="M 0.84375 -3.59375 C 0.707031 -3.59375 0.585938 -3.640625 0.484375 -3.734375 C 0.390625 -3.828125 0.34375 -3.945312 0.34375 -4.09375 C 0.34375 -4.238281 0.390625 -4.359375 0.484375 -4.453125 C 0.585938 -4.546875 0.707031 -4.59375 0.84375 -4.59375 C 0.976562 -4.59375 1.09375 -4.546875 1.1875 -4.453125 C 1.28125 -4.359375 1.328125 -4.238281 1.328125 -4.09375 C 1.328125 -3.945312 1.28125 -3.828125 1.1875 -3.734375 C 1.09375 -3.640625 0.976562 -3.59375 0.84375 -3.59375 Z M 1.234375 -3.125 L 1.234375 0 L 0.4375 0 L 0.4375 -3.125 Z M 1.234375 -3.125 "/></g></g></g><g fill="#1a0322" fill-opacity="1"><g transform="translate(139.720497, 141.855662)"><g><path d="M 2.25 -3.203125 C 2.5625 -3.203125 2.816406 -3.109375 3.015625 -2.921875 C 3.210938 -2.734375 3.3125 -2.488281 3.3125 -2.1875 L 3.3125 0 L 2.515625 0 L 2.515625 -1.734375 C 2.515625 -2.003906 2.472656 -2.195312 2.390625 -2.3125 C 2.304688 -2.4375 2.171875 -2.5 1.984375 -2.5 C 1.773438 -2.5 1.554688 -2.382812 1.328125 -2.15625 L 1.328125 0 L 0.53125 0 L 0.53125 -2.4375 L 0.40625 -3.125 L 1.125 -3.125 L 1.234375 -2.734375 C 1.410156 -2.898438 1.578125 -3.019531 1.734375 -3.09375 C 1.898438 -3.164062 2.070312 -3.203125 2.25 -3.203125 Z M 2.25 -3.203125 "/></g></g></g><g fill="#1a0322" fill-opacity="1"><g transform="translate(146.435743, 141.855662)"><g><path d="M 3.296875 -1.328125 L 1.125 -1.328125 C 1.15625 -1.085938 1.242188 -0.898438 1.390625 -0.765625 C 1.535156 -0.640625 1.726562 -0.578125 1.96875 -0.578125 C 2.15625 -0.578125 2.351562 -0.609375 2.5625 -0.671875 C 2.769531 -0.742188 2.960938 -0.835938 3.140625 -0.953125 L 3.171875 -0.953125 L 3.171875 -0.3125 C 3.003906 -0.1875 2.816406 -0.0859375 2.609375 -0.015625 C 2.410156 0.046875 2.195312 0.078125 1.96875 0.078125 C 1.632812 0.078125 1.347656 0.0078125 1.109375 -0.125 C 0.867188 -0.257812 0.679688 -0.445312 0.546875 -0.6875 C 0.410156 -0.9375 0.34375 -1.226562 0.34375 -1.5625 C 0.34375 -1.882812 0.40625 -2.171875 0.53125 -2.421875 C 0.65625 -2.671875 0.832031 -2.863281 1.0625 -3 C 1.289062 -3.132812 1.554688 -3.203125 1.859375 -3.203125 C 2.148438 -3.203125 2.40625 -3.132812 2.625 -3 C 2.84375 -2.875 3.007812 -2.6875 3.125 -2.4375 C 3.238281 -2.1875 3.296875 -1.894531 3.296875 -1.5625 Z M 1.859375 -2.5625 C 1.671875 -2.5625 1.515625 -2.5 1.390625 -2.375 C 1.265625 -2.257812 1.179688 -2.085938 1.140625 -1.859375 L 2.484375 -1.859375 C 2.453125 -2.085938 2.382812 -2.257812 2.28125 -2.375 C 2.175781 -2.5 2.035156 -2.5625 1.859375 -2.5625 Z M 1.859375 -2.5625 "/></g></g></g><g fill="#1a0322" fill-opacity="1"><g transform="translate(152.911377, 141.855662)"><g/></g></g><g fill="#1a0322" fill-opacity="1"><g transform="translate(157.470093, 141.855662)"><g><path d="M 0.625 -4.171875 L 1.40625 -4.171875 L 1.40625 -0.703125 L 3.171875 -0.703125 L 3.171875 0 L 0.625 0 Z M 0.625 -4.171875 "/></g></g></g><g fill="#1a0322" fill-opacity="1"><g transform="translate(163.825915, 141.855662)"><g><path d="M 3.296875 -1.328125 L 1.125 -1.328125 C 1.15625 -1.085938 1.242188 -0.898438 1.390625 -0.765625 C 1.535156 -0.640625 1.726562 -0.578125 1.96875 -0.578125 C 2.15625 -0.578125 2.351562 -0.609375 2.5625 -0.671875 C 2.769531 -0.742188 2.960938 -0.835938 3.140625 -0.953125 L 3.171875 -0.953125 L 3.171875 -0.3125 C 3.003906 -0.1875 2.816406 -0.0859375 2.609375 -0.015625 C 2.410156 0.046875 2.195312 0.078125 1.96875 0.078125 C 1.632812 0.078125 1.347656 0.0078125 1.109375 -0.125 C 0.867188 -0.257812 0.679688 -0.445312 0.546875 -0.6875 C 0.410156 -0.9375 0.34375 -1.226562 0.34375 -1.5625 C 0.34375 -1.882812 0.40625 -2.171875 0.53125 -2.421875 C 0.65625 -2.671875 0.832031 -2.863281 1.0625 -3 C 1.289062 -3.132812 1.554688 -3.203125 1.859375 -3.203125 C 2.148438 -3.203125 2.40625 -3.132812 2.625 -3 C 2.84375 -2.875 3.007812 -2.6875 3.125 -2.4375 C 3.238281 -2.1875 3.296875 -1.894531 3.296875 -1.5625 Z M 1.859375 -2.5625 C 1.671875 -2.5625 1.515625 -2.5 1.390625 -2.375 C 1.265625 -2.257812 1.179688 -2.085938 1.140625 -1.859375 L 2.484375 -1.859375 C 2.453125 -2.085938 2.382812 -2.257812 2.28125 -2.375 C 2.175781 -2.5 2.035156 -2.5625 1.859375 -2.5625 Z M 1.859375 -2.5625 "/></g></g></g><g fill="#1a0322" fill-opacity="1"><g transform="translate(170.301549, 141.855662)"><g><path d="M 2.453125 0 L 2.375 -0.375 C 2.082031 -0.0703125 1.738281 0.078125 1.34375 0.078125 C 1.03125 0.078125 0.773438 -0.00390625 0.578125 -0.171875 C 0.378906 -0.335938 0.28125 -0.554688 0.28125 -0.828125 C 0.28125 -1.171875 0.40625 -1.4375 0.65625 -1.625 C 0.914062 -1.820312 1.289062 -1.921875 1.78125 -1.921875 C 1.957031 -1.921875 2.132812 -1.914062 2.3125 -1.90625 L 2.3125 -2.015625 C 2.3125 -2.191406 2.257812 -2.320312 2.15625 -2.40625 C 2.0625 -2.488281 1.90625 -2.53125 1.6875 -2.53125 C 1.476562 -2.53125 1.28125 -2.492188 1.09375 -2.421875 C 0.914062 -2.359375 0.71875 -2.25 0.5 -2.09375 L 0.5 -2.796875 C 0.6875 -2.941406 0.878906 -3.046875 1.078125 -3.109375 C 1.273438 -3.171875 1.492188 -3.203125 1.734375 -3.203125 C 2.179688 -3.203125 2.519531 -3.109375 2.75 -2.921875 C 2.988281 -2.734375 3.109375 -2.457031 3.109375 -2.09375 L 3.109375 -0.703125 L 3.234375 0 Z M 1.0625 -0.875 C 1.0625 -0.644531 1.195312 -0.53125 1.46875 -0.53125 C 1.613281 -0.53125 1.753906 -0.5625 1.890625 -0.625 C 2.023438 -0.6875 2.164062 -0.785156 2.3125 -0.921875 L 2.3125 -1.34375 L 1.734375 -1.34375 C 1.503906 -1.34375 1.332031 -1.304688 1.21875 -1.234375 C 1.113281 -1.171875 1.0625 -1.050781 1.0625 -0.875 Z M 1.0625 -0.875 "/></g></g></g><g fill="#1a0322" fill-opacity="1"><g transform="translate(176.657371, 141.855662)"><g><path d="M 2.203125 -3.203125 L 2.203125 -2.421875 L 2.09375 -2.421875 C 1.78125 -2.421875 1.53125 -2.335938 1.34375 -2.171875 L 1.34375 0 L 0.546875 0 L 0.546875 -2.4375 L 0.40625 -3.125 L 1.203125 -3.125 L 1.28125 -2.71875 C 1.414062 -2.894531 1.535156 -3.019531 1.640625 -3.09375 C 1.753906 -3.164062 1.875 -3.203125 2 -3.203125 Z M 2.203125 -3.203125 "/></g></g></g><g fill="#1a0322" fill-opacity="1"><g transform="translate(182.054735, 141.855662)"><g><path d="M 2.25 -3.203125 C 2.5625 -3.203125 2.816406 -3.109375 3.015625 -2.921875 C 3.210938 -2.734375 3.3125 -2.488281 3.3125 -2.1875 L 3.3125 0 L 2.515625 0 L 2.515625 -1.734375 C 2.515625 -2.003906 2.472656 -2.195312 2.390625 -2.3125 C 2.304688 -2.4375 2.171875 -2.5 1.984375 -2.5 C 1.773438 -2.5 1.554688 -2.382812 1.328125 -2.15625 L 1.328125 0 L 0.53125 0 L 0.53125 -2.4375 L 0.40625 -3.125 L 1.125 -3.125 L 1.234375 -2.734375 C 1.410156 -2.898438 1.578125 -3.019531 1.734375 -3.09375 C 1.898438 -3.164062 2.070312 -3.203125 2.25 -3.203125 Z M 2.25 -3.203125 "/></g></g></g><g fill="#1a0322" fill-opacity="1"><g transform="translate(188.769981, 141.855662)"><g><path d="M 0.84375 -3.59375 C 0.707031 -3.59375 0.585938 -3.640625 0.484375 -3.734375 C 0.390625 -3.828125 0.34375 -3.945312 0.34375 -4.09375 C 0.34375 -4.238281 0.390625 -4.359375 0.484375 -4.453125 C 0.585938 -4.546875 0.707031 -4.59375 0.84375 -4.59375 C 0.976562 -4.59375 1.09375 -4.546875 1.1875 -4.453125 C 1.28125 -4.359375 1.328125 -4.238281 1.328125 -4.09375 C 1.328125 -3.945312 1.28125 -3.828125 1.1875 -3.734375 C 1.09375 -3.640625 0.976562 -3.59375 0.84375 -3.59375 Z M 1.234375 -3.125 L 1.234375 0 L 0.4375 0 L 0.4375 -3.125 Z M 1.234375 -3.125 "/></g></g></g><g fill="#1a0322" fill-opacity="1"><g transform="translate(193.328697, 141.855662)"><g><path d="M 2.25 -3.203125 C 2.5625 -3.203125 2.816406 -3.109375 3.015625 -2.921875 C 3.210938 -2.734375 3.3125 -2.488281 3.3125 -2.1875 L 3.3125 0 L 2.515625 0 L 2.515625 -1.734375 C 2.515625 -2.003906 2.472656 -2.195312 2.390625 -2.3125 C 2.304688 -2.4375 2.171875 -2.5 1.984375 -2.5 C 1.773438 -2.5 1.554688 -2.382812 1.328125 -2.15625 L 1.328125 0 L 0.53125 0 L 0.53125 -2.4375 L 0.40625 -3.125 L 1.125 -3.125 L 1.234375 -2.734375 C 1.410156 -2.898438 1.578125 -3.019531 1.734375 -3.09375 C 1.898438 -3.164062 2.070312 -3.203125 2.25 -3.203125 Z M 2.25 -3.203125 "/></g></g></g><g fill="#1a0322" fill-opacity="1"><g transform="translate(200.043942, 141.855662)"><g><path d="M 3.4375 -3.125 L 3.296875 -2.4375 L 3.296875 0 C 3.296875 0.476562 3.15625 0.84375 2.875 1.09375 C 2.59375 1.34375 2.210938 1.46875 1.734375 1.46875 C 1.472656 1.46875 1.238281 1.429688 1.03125 1.359375 C 0.832031 1.296875 0.640625 1.207031 0.453125 1.09375 L 0.453125 0.34375 C 0.828125 0.632812 1.234375 0.78125 1.671875 0.78125 C 2.234375 0.78125 2.515625 0.519531 2.515625 0 L 2.515625 -0.25 C 2.265625 -0.113281 1.988281 -0.046875 1.6875 -0.046875 C 1.269531 -0.046875 0.941406 -0.179688 0.703125 -0.453125 C 0.460938 -0.734375 0.34375 -1.117188 0.34375 -1.609375 C 0.34375 -2.109375 0.46875 -2.5 0.71875 -2.78125 C 0.96875 -3.0625 1.3125 -3.203125 1.75 -3.203125 C 1.894531 -3.203125 2.03125 -3.1875 2.15625 -3.15625 C 2.28125 -3.125 2.429688 -3.070312 2.609375 -3 L 2.640625 -3.125 Z M 1.71875 -0.71875 C 1.96875 -0.71875 2.234375 -0.800781 2.515625 -0.96875 L 2.515625 -2.46875 C 2.410156 -2.5 2.304688 -2.515625 2.203125 -2.515625 C 2.097656 -2.523438 1.972656 -2.53125 1.828125 -2.53125 C 1.597656 -2.53125 1.429688 -2.457031 1.328125 -2.3125 C 1.222656 -2.164062 1.171875 -1.929688 1.171875 -1.609375 C 1.171875 -1.296875 1.210938 -1.066406 1.296875 -0.921875 C 1.390625 -0.785156 1.53125 -0.71875 1.71875 -0.71875 Z M 1.71875 -0.71875 "/></g></g></g></svg>